<?xml version="1.0" encoding="UTF-8" standalone="no"?>
<!-- Created with Inkscape (http://www.inkscape.org/) -->

<svg
   xmlns:dc="http://purl.org/dc/elements/1.1/"
   xmlns:cc="http://creativecommons.org/ns#"
   xmlns:rdf="http://www.w3.org/1999/02/22-rdf-syntax-ns#"
   xmlns:svg="http://www.w3.org/2000/svg"
   xmlns="http://www.w3.org/2000/svg"
   xmlns:sodipodi="http://sodipodi.sourceforge.net/DTD/sodipodi-0.dtd"
   xmlns:inkscape="http://www.inkscape.org/namespaces/inkscape"
   width="448.64124"
   height="271.51132"
   id="svg7489"
   version="1.1"
   inkscape:version="0.48.5 r10040"
   sodipodi:docname="Dassualt_Systems-Solidworks_Colour.svg">
  <defs
     id="defs7491" />
  <sodipodi:namedview
     id="base"
     pagecolor="#ffffff"
     bordercolor="#666666"
     borderopacity="1.0"
     inkscape:pageopacity="0.0"
     inkscape:pageshadow="2"
     inkscape:zoom="0.35"
     inkscape:cx="233.60537"
     inkscape:cy="316.26095"
     inkscape:document-units="px"
     inkscape:current-layer="layer1"
     showgrid="false"
     inkscape:window-width="1680"
     inkscape:window-height="988"
     inkscape:window-x="1672"
     inkscape:window-y="-8"
     inkscape:window-maximized="1"
     fit-margin-top="0"
     fit-margin-left="0"
     fit-margin-right="0"
     fit-margin-bottom="0" />
  <metadata
     id="metadata7494">
    <rdf:RDF>
      <cc:Work
         rdf:about="">
        <dc:format>image/svg+xml</dc:format>
        <dc:type
           rdf:resource="http://purl.org/dc/dcmitype/StillImage" />
        <dc:title />
      </cc:Work>
    </rdf:RDF>
  </metadata>
  <g
     inkscape:label="Layer 1"
     inkscape:groupmode="layer"
     id="layer1"
     transform="translate(-141.39463,-234.25466)">
    <g
       id="g3027">
      <path
         inkscape:connector-curvature="0"
         d="m 222.7418,481.1526 0,4.86084 c 0,3.93528 1.30003,7.41609 6.40859,7.41609 3.75541,0 5.39788,-3.39056 5.39788,-6.87137 0,-5.76081 -4.75075,-7.94608 -8.95359,-10.52373 -4.95813,-2.83304 -9.15649,-5.48301 -12.16171,-8.95358 -2.94762,-3.50065 -4.68802,-7.69644 -4.68802,-13.74722 0,-12.88694 7.78094,-19.48243 20.22301,-19.48243 14.01414,0 21.14794,9.33636 20.4048,22.22266 l -14.82449,0 c -0.18755,-4.01273 0,-9.50342 -5.30571,-9.86891 -3.28814,-0.2746 -5.20073,1.56822 -5.57839,4.56832 -0.46214,4.12346 1.65528,6.23128 4.85061,8.42103 6.03349,3.8559 11.24446,6.23128 15.01267,9.69673 3.74261,3.49041 5.93556,8.06321 5.93556,16.38951 0,13.16986 -7.31623,20.48545 -20.67555,20.48545 -14.74192,0 -20.94248,-8.22132 -20.94248,-17.28244 l 0,-7.33095 14.89682,0"
         style="fill:#eb1a2c;fill-opacity:1;fill-rule:evenodd;stroke:none"
         id="path10798" />
      <path
         inkscape:connector-curvature="0"
         d="m 254.08382,468.99856 c 0,-13.18714 7.78606,-17.57752 19.02477,-17.57752 12.81973,0 19.03308,6.02837 19.03308,17.57752 l 0,20.85286 c -0.74506,11.61636 -7.95888,15.91457 -19.03308,15.91457 -10.43091,0 -19.02477,-4.20027 -19.02477,-15.91457 l 0,-20.85286 z m 14.5595,21.76563 c 0.265,2.9329 1.46516,4.48319 4.46527,4.48319 3.02314,0 4.20347,-1.55029 4.49087,-4.48319 l 0,-22.88067 c 0,-3.27598 -1.10031,-5.94387 -4.49087,-5.94387 -3.38288,0 -4.46527,2.66789 -4.46527,5.94387 l 0,22.88067"
         style="fill:#eb1a2c;fill-opacity:1;fill-rule:evenodd;stroke:none"
         id="path10800" />
      <path
         inkscape:connector-curvature="0"
         d="m 297.80967,504.10111 14.55956,0 0,-68.58951 -14.55956,0 0,68.58951 z"
         style="fill:#eb1a2c;fill-opacity:1;fill-rule:evenodd;stroke:none"
         id="path10802" />
      <path
         inkscape:connector-curvature="0"
         d="m 319.61307,452.88109 14.49676,0 0,51.22002 -14.49676,0 0,-51.22002 z m 0,-29.74884 14.49676,0 0,12.3563 -14.49676,0 0,-12.3563"
         style="fill:#eb1a2c;fill-opacity:1;fill-rule:evenodd;stroke:none"
         id="path10804" />
      <path
         inkscape:connector-curvature="0"
         d="m 364.83161,504.10559 0,-5.93043 -0.17219,0 c -2.66789,4.95302 -7.05379,7.59083 -11.34688,7.59083 -10.61654,-0.36485 -12.72883,-10.33362 -12.72883,-19.02989 l 0,-17.73754 c 0,-8.05617 2.84008,-17.57752 12.45423,-17.57752 3.85015,0 7.58059,1.64759 10.59094,6.13335 l 0.19523,0 0,-22.04343 14.55437,0 0,68.59463 -13.54687,0 z m -9.69353,-18.4698 c 0,3.03019 0,8.2386 4.19515,8.2386 3.93592,0 4.49088,-3.92567 4.49088,-8.88125 l 0,-12.07403 c 0,-4.39101 -0.65226,-9.69928 -4.22076,-9.58919 -4.64321,0 -4.46527,5.76594 -4.46527,9.05152 l 0,13.25435"
         style="fill:#eb1a2c;fill-opacity:1;fill-rule:evenodd;stroke:none"
         id="path10806" />
      <path
         inkscape:connector-curvature="0"
         d="m 405.73274,504.10559 -9.43429,0 -14.62159,-68.59463 8.41591,0 8.94142,47.30203 c 0.8302,4.65538 1.47797,9.41381 2.03997,15.81471 l 0.17026,0 c 0.64266,-5.29611 1.18545,-10.32914 2.20512,-15.26999 l 10.05901,-47.84675 9.40677,0 9.08608,47.30203 c 0.78987,4.56832 1.34035,9.13857 1.98748,15.81471 l 0.19523,0 c 0.62729,-5.29611 1.18033,-10.32914 2.19807,-15.26999 l 9.95597,-47.84675 8.43383,0 -16.10468,68.59463 -9.41892,0 -9.14369,-46.5512 c -0.91021,-4.48576 -1.45557,-9.05408 -2.02013,-16.55978 l -0.19011,0 c -0.62536,6.59549 -1.18544,11.60676 -2.18783,16.55978 l -9.97388,46.5512"
         style="fill:#eb1a2c;fill-opacity:1;fill-rule:evenodd;stroke:none"
         id="path10808" />
      <path
         inkscape:connector-curvature="0"
         d="m 470.88177,505.49139 c -10.96411,0 -18.18753,-6.58845 -18.18753,-28.53715 0,-15.38713 5.66096,-25.08065 18.18753,-25.08065 12.54705,0 18.22977,9.69352 18.22977,25.08065 0,22.03319 -7.05828,28.53715 -18.22977,28.53715 z m 0,-47.47934 c -7.386,0 -10.69399,5.83827 -10.69399,21.23564 0,11.97609 2.29024,20.12252 10.69399,20.12252 8.59641,0 10.70167,-8.14643 10.70167,-20.12252 0,-15.39737 -3.09292,-21.23564 -10.70167,-21.23564"
         style="fill:#eb1a2c;fill-opacity:1;fill-rule:evenodd;stroke:none"
         id="path10810" />
      <path
         inkscape:connector-curvature="0"
         d="m 502.78643,461.56711 0.18243,0 c 3.01034,-6.67038 7.32327,-9.50598 14.89682,-8.84604 l 0,7.12612 c -9.32612,-1.65271 -14.82193,4.19835 -14.82193,13.43166 l 0,30.82674 -7.22598,0 0,-50.84685 6.96866,0 0,8.30837"
         style="fill:#eb1a2c;fill-opacity:1;fill-rule:evenodd;stroke:none"
         id="path10812" />
      <path
         inkscape:connector-curvature="0"
         d="m 523.05937,504.10559 0,-68.59463 7.20806,0 0,41.44328 17.56535,-23.6955 8.59834,0 -15.70974,19.75767 16.17508,31.08918 -8.40886,0 -12.73396,-25.32325 -5.48621,7.2311 0,18.09215 -7.20806,0"
         style="fill:#eb1a2c;fill-opacity:1;fill-rule:evenodd;stroke:none"
         id="path10814" />
      <path
         inkscape:connector-curvature="0"
         d="m 581.14756,466.89074 c 0.2874,-6.04565 -1.88826,-8.87869 -8.04913,-8.87869 -5.11816,0 -8.04338,2.39266 -8.04338,7.69325 0,6.5686 5.39853,7.4084 10.35154,9.49894 7.29831,3.31566 14.62927,5.13096 14.62927,14.64718 0,9.69865 -6.76832,15.74238 -17.21715,15.63997 -4.47551,0.10241 -9.95148,-1.45301 -12.61938,-5.30123 -3.01035,-4.02041 -2.83816,-7.4084 -2.83816,-10.89113 l 6.88097,0 c -0.26948,6.22551 1.82554,10.07118 8.57657,10.07118 5.88563,0 9.72361,-2.38754 9.72361,-8.60602 0,-7.21894 -7.32327,-7.86607 -12.54129,-10.06926 -7.86607,-2.91497 -12.44719,-5.5707 -12.44719,-14.43467 0,-8.81085 6.13846,-14.38667 14.92242,-14.38667 10.06606,0 15.90945,4.59776 15.72702,15.01715 l -7.05572,0"
         style="fill:#eb1a2c;fill-opacity:1;fill-rule:evenodd;stroke:none"
         id="path10816" />
      <path
         inkscape:connector-curvature="0"
         d="m 238.2115,333.27701 c -27.22112,-8.04913 -56.89826,-1.05294 -61.42626,0.14723 -6.85345,1.81529 -10.86649,3.64787 -10.58645,5.79345 0.21251,1.58743 1.96277,2.68006 10.38674,2.47011 20.07259,-0.48711 36.7047,0.19523 47.21626,3.1358 13.01944,3.63508 14.62479,10.3413 8.17652,23.51564 -2.98347,6.08598 -7.39113,12.37935 -14.06727,19.06509 -13.32924,13.37469 -29.98887,22.07543 -39.37579,26.82875 -9.12353,4.63297 -12.46147,2.17054 -11.44885,-2.39778 1.24766,-5.59311 27.13874,-50.39431 27.13874,-50.39431 1.94523,-3.40336 2.29024,-6.59613 0,-7.55115 -1.96252,-0.83788 -5.52078,1.92283 -9.21858,6.198 -15.10978,17.54999 -42.97867,70.94505 -43.49625,72.69569 -0.51009,1.67768 0.80261,1.89019 1.30015,1.90235 11.80167,-0.0922 84.23723,-21.51791 107.60757,-65.30393 12.31213,-23.05861 6.08342,-30.68913 -12.20653,-36.10494"
         style="fill:#3d3495;fill-opacity:1;fill-rule:evenodd;stroke:none"
         id="path10818" />
      <path
         inkscape:connector-curvature="0"
         d="m 274.29404,312.21868 c -14.62735,12.64691 7.06595,33.48761 17.26259,45.42913 9.92844,11.6138 21.9455,26.35636 22.50558,31.41691 0.25987,2.31777 -0.20483,4.95814 -2.98539,6.68063 -4.54336,2.8356 -23.29864,5.57838 -62.10156,5.54382 -8.42102,-0.005 -10.13647,0.81227 -10.34898,2.32225 -0.12225,0.79051 -0.37957,2.61797 10.32658,5.31083 0.29252,0.0774 44.47155,8.20403 68.02944,0 24.07123,-8.21108 18.01278,-22.078 13.69729,-30.08169 -6.64862,-12.34158 -37.32559,-48.20392 -39.85586,-53.07757 -2.36514,-4.56768 1.08303,-6.5654 1.08303,-6.5654 0,0 5.13032,-6.17111 46.03145,-5.81586 8.42871,0.0595 10.17872,-0.8206 10.37395,-2.33825 0.16706,-1.25266 -2.23776,-3.97816 -10.25425,-5.69553 -7.56075,-1.62518 -46.22156,-8.29621 -63.76387,6.87073"
         style="fill:#f3971a;fill-opacity:1;fill-rule:evenodd;stroke:none"
         id="path10820" />
      <path
         inkscape:connector-curvature="0"
         d="m 221.53651,237.73074 c -3.2651,0.95501 -9.83883,2.76519 -9.28131,5.1636 0.35525,1.53494 1.65784,2.2672 9.29667,2.26272 17.07953,-0.0224 30.35629,1.08752 39.45005,2.71783 18.49029,3.34063 14.13447,12.67186 8.87869,21.60304 -12.75124,21.74515 -47.19386,46.20876 -49.19158,47.59136 -2.63013,1.80825 -1.19249,2.86056 1.1048,2.00796 27.9265,-10.38674 56.06807,-28.29903 67.43479,-50.06466 9.63912,-18.45765 2.72807,-27.21152 -11.96649,-31.33946 -26.23666,-7.37832 -53.43793,-0.61769 -55.72562,0.0576"
         style="fill:#eb1a2c;fill-opacity:1;fill-rule:evenodd;stroke:none"
         id="path10822" />
    </g>
  </g>
</svg>
