<?xml version="1.0" encoding="UTF-8" standalone="no"?>
<!-- Created with Inkscape (http://www.inkscape.org/) -->

<svg
   xmlns:dc="http://purl.org/dc/elements/1.1/"
   xmlns:cc="http://creativecommons.org/ns#"
   xmlns:rdf="http://www.w3.org/1999/02/22-rdf-syntax-ns#"
   xmlns:svg="http://www.w3.org/2000/svg"
   xmlns="http://www.w3.org/2000/svg"
   xmlns:sodipodi="http://sodipodi.sourceforge.net/DTD/sodipodi-0.dtd"
   xmlns:inkscape="http://www.inkscape.org/namespaces/inkscape"
   id="svg2"
   version="1.1"
   inkscape:version="0.91 r"
   xml:space="preserve"
   width="353.9375"
   height="176.85001"
   viewBox="0 0 353.9375 176.85001"
   sodipodi:docname="Logo-ESF-cmyk.svg"><metadata
     id="metadata8"><rdf:RDF><cc:Work
         rdf:about=""><dc:format>image/svg+xml</dc:format><dc:type
           rdf:resource="http://purl.org/dc/dcmitype/StillImage" /><dc:title></dc:title></cc:Work></rdf:RDF></metadata><defs
     id="defs6"><clipPath
       clipPathUnits="userSpaceOnUse"
       id="clipPath98"><path
         d="M 1042.82,538.18 196.301,803.227 0,544.945 1042.82,538.18 Z"
         id="path100"
         inkscape:connector-curvature="0" /></clipPath><linearGradient
       x1="0"
       y1="0"
       x2="1"
       y2="0"
       gradientUnits="userSpaceOnUse"
       gradientTransform="matrix(-21.0034,-207.893,-207.893,21.0034,540.308,728.54)"
       spreadMethod="pad"
       id="linearGradient102"><stop
         style="stop-opacity:1;stop-color:#162d66"
         offset="0"
         id="stop104" /><stop
         style="stop-opacity:1;stop-color:#162d66"
         offset="0.132479"
         id="stop106" /><stop
         style="stop-opacity:1;stop-color:#254aa5"
         offset="1"
         id="stop108" /></linearGradient><clipPath
       clipPathUnits="userSpaceOnUse"
       id="clipPath116"><path
         d="M 1068.83,562.348 534.98,1270.45 226.379,1176.68 1068.83,562.348 Z"
         id="path118"
         inkscape:connector-curvature="0" /></clipPath><linearGradient
       x1="0"
       y1="0"
       x2="1"
       y2="0"
       gradientUnits="userSpaceOnUse"
       gradientTransform="matrix(102.9,161.704,161.704,-102.9,660.342,889.526)"
       spreadMethod="pad"
       id="linearGradient120"><stop
         style="stop-opacity:1;stop-color:#ed1c24"
         offset="0"
         id="stop122" /><stop
         style="stop-opacity:1;stop-color:#ed1c24"
         offset="0.149573"
         id="stop124" /><stop
         style="stop-opacity:1;stop-color:#c4161d"
         offset="0.84188"
         id="stop126" /><stop
         style="stop-opacity:1;stop-color:#c4161d"
         offset="1"
         id="stop128" /></linearGradient><clipPath
       clipPathUnits="userSpaceOnUse"
       id="clipPath138"><path
         d="M 1055.12,550.609 330.52,1061.91 65.2813,878.363 1055.12,550.609 Z"
         id="path140"
         inkscape:connector-curvature="0" /></clipPath><linearGradient
       x1="0"
       y1="0"
       x2="1"
       y2="0"
       gradientUnits="userSpaceOnUse"
       gradientTransform="matrix(77.7014,176.408,176.408,-77.7014,551.89,695.61)"
       spreadMethod="pad"
       id="linearGradient142"><stop
         style="stop-opacity:1;stop-color:#f1ce04"
         offset="0"
         id="stop144" /><stop
         style="stop-opacity:1;stop-color:#f1ce04"
         offset="0.179487"
         id="stop146" /><stop
         style="stop-opacity:1;stop-color:#d0b103"
         offset="0.940171"
         id="stop148" /><stop
         style="stop-opacity:1;stop-color:#d0b103"
         offset="1"
         id="stop150" /></linearGradient></defs><sodipodi:namedview
     pagecolor="#ffffff"
     bordercolor="#666666"
     borderopacity="1"
     objecttolerance="10"
     gridtolerance="10"
     guidetolerance="10"
     inkscape:pageopacity="0"
     inkscape:pageshadow="2"
     inkscape:window-width="1068"
     inkscape:window-height="480"
     id="namedview4"
     showgrid="false"
     inkscape:zoom="0.91541586"
     inkscape:cx="57.350984"
     inkscape:cy="88.425003"
     inkscape:window-x="0"
     inkscape:window-y="0"
     inkscape:window-maximized="0"
     inkscape:current-layer="g10" /><g
     id="g10"
     inkscape:groupmode="layer"
     inkscape:label="ink_ext_XXXXXX"
     transform="matrix(1.25,0,0,-1.25,0,176.85)"><g
       id="g12"
       transform="scale(0.1,0.1)"><path
         d="m 1653.77,538.277 -442.83,0 c -8.78,0 -19.73,2.207 -19.73,19.746 l 0,691.647 c 0,17.54 10.95,19.73 19.73,19.73 l 420.92,0 c 8.76,0 19.72,-2.19 19.72,-19.73 l 0,-88.79 c 0,-17.54 -10.96,-19.72 -19.72,-19.72 l -254.32,0 c -4.39,0 -10.95,-2.2 -10.95,-13.16 l 0,-133.719 c 0,-9.883 6.56,-13.164 10.95,-13.164 l 198.42,0 c 8.76,0 19.71,-2.187 19.71,-19.726 l 0,-88.797 c 0,-17.531 -10.95,-19.719 -19.71,-19.719 l -198.42,0 c -4.39,0 -10.95,-2.195 -10.95,-13.152 l 0,-160.059 c 0,-9.824 6.56,-13.125 10.95,-13.125 l 276.23,0 c 8.78,0 19.74,-2.219 19.74,-19.746 l 0,-88.77 c 0,-17.539 -10.96,-19.746 -19.74,-19.746"
         style="fill:#254aa5;fill-opacity:1;fill-rule:nonzero;stroke:none"
         id="path14"
         inkscape:connector-curvature="0" /><path
         d="m 1979.45,527.398 c -121.67,0 -183.04,29.598 -199.51,40.555 -10.95,6.582 -13.13,14.25 -13.13,27.402 l 0,86.602 c 0,8.762 2.18,17.531 15.35,17.531 9.84,0 15.33,-4.394 23.01,-8.769 18.63,-10.969 69.03,-39.465 155.65,-39.465 59.19,0 115.08,9.863 115.08,72.344 0,42.746 -26.31,60.285 -59.19,80.011 l -123.86,76.739 c -41.66,26.297 -112.91,72.343 -112.91,196.212 0,162.21 141.41,199.48 265.27,199.48 62.49,0 129.35,-12.05 174.28,-39.45 10.95,-6.59 13.17,-14.26 13.17,-27.41 l 0,-88.79 c 0,-8.76 -2.22,-17.53 -15.36,-17.53 -10.95,0 -16.44,5.48 -25.2,9.86 -51.53,27.4 -84.4,40.56 -149.08,40.56 -48.23,0 -98.64,-12.07 -98.64,-65.76 0,-40.56 27.4,-59.2 60.27,-76.74 l 97.56,-53.706 c 85.51,-47.136 140.29,-92.078 140.29,-212.656 0,-157.84 -117.27,-217.02 -263.05,-217.02"
         style="fill:#254aa5;fill-opacity:1;fill-rule:nonzero;stroke:none"
         id="path16"
         inkscape:connector-curvature="0" /><path
         d="m 2811.79,1139.03 -232.38,0 c -4.37,0 -10.94,-2.19 -10.94,-13.15 l 0,-155.65 c 0,-9.875 6.57,-13.156 10.94,-13.156 l 189.64,0 c 8.78,0 19.73,-2.195 19.73,-19.726 l 0,-88.797 c 0,-17.531 -10.95,-19.727 -19.73,-19.727 l -189.64,0 c -4.37,0 -10.94,-2.187 -10.94,-13.156 l 0,-259.766 c 0,-17.547 -10.97,-19.734 -19.73,-19.734 l -135.93,0 c -8.77,0 -19.73,2.187 -19.73,19.734 l 0,691.638 c 0,17.54 10.96,19.74 19.73,19.74 l 398.98,0 c 8.78,0 19.73,-2.2 19.73,-19.74 l 0,-88.77 c 0,-17.56 -10.95,-19.74 -19.73,-19.74"
         style="fill:#254aa5;fill-opacity:1;fill-rule:nonzero;stroke:none"
         id="path18"
         inkscape:connector-curvature="0" /><path
         d="m 153.137,262.75 -83.4104,0 c -1.6485,0 -3.711,0.422 -3.711,3.719 l 0,130.261 c 0,3.309 2.0625,3.711 3.711,3.711 l 79.2894,0 c 1.648,0 3.711,-0.402 3.711,-3.711 l 0,-16.71 c 0,-3.301 -2.063,-3.719 -3.711,-3.719 l -47.903,0 c -0.832,0 -2.0622,-0.422 -2.0622,-2.469 l 0,-25.184 c 0,-1.859 1.2302,-2.468 2.0622,-2.468 l 37.364,0 c 1.652,0 3.73,-0.442 3.73,-3.731 l 0,-16.738 c 0,-3.301 -2.078,-3.711 -3.73,-3.711 l -37.364,0 c -0.832,0 -2.0622,-0.398 -2.0622,-2.48 l 0,-30.149 c 0,-1.851 1.2302,-2.473 2.0622,-2.473 l 52.024,0 c 1.66,0 3.718,-0.418 3.718,-3.707 l 0,-16.722 c 0,-3.297 -2.058,-3.719 -3.718,-3.719"
         style="fill:#231f20;fill-opacity:1;fill-rule:nonzero;stroke:none"
         id="path20"
         inkscape:connector-curvature="0" /><path
         d="m 284.656,262.75 -23.34,0 c -2.468,0 -2.878,1.23 -2.878,2.691 0,0.821 0,1.45 -2.071,1.45 -2.48,0 -5.781,-1.051 -7.629,-1.871 -6.004,-2.489 -14.461,-3.93 -20.855,-3.93 -11.778,0 -22.297,2.89 -28.918,10.109 -6.797,7.449 -7.625,16.512 -7.625,33.449 l 0,59.262 c 0,3.309 2.051,3.731 3.711,3.731 l 23.535,0 c 1.648,0 3.719,-0.422 3.719,-3.731 l 0,-57.578 c 0,-8.301 0.617,-13.652 3.308,-17.16 3.086,-3.902 8.047,-5.582 14.653,-5.582 3.511,0 7.839,0.64 10.957,2.09 4.121,1.84 6.172,4.73 6.172,9.91 l 0,68.32 c 0,3.309 2.07,3.731 3.718,3.731 l 23.543,0 c 1.645,0 3.711,-0.422 3.711,-3.731 l 0,-97.441 c 0,-3.297 -2.066,-3.719 -3.711,-3.719"
         style="fill:#231f20;fill-opacity:1;fill-rule:nonzero;stroke:none"
         id="path22"
         inkscape:connector-curvature="0" /><path
         d="m 396.328,342.23 c -3.098,0 -4.734,1.641 -15.691,1.641 -16.496,0 -18.574,-8.66 -18.574,-16.289 l 0,-61.113 c 0,-3.297 -2.063,-3.719 -3.711,-3.719 l -23.547,0 c -1.653,0 -3.711,0.422 -3.711,3.719 l 0,97.441 c 0,3.309 2.058,3.731 3.711,3.731 l 22.922,0 c 2.476,0 2.886,-1.25 2.886,-2.711 l 0,-1.641 c 0,-1.008 1.047,-1.848 2.27,-1.848 5.996,0 10.535,7.84 26.012,7.84 9.085,0 10.324,-3.312 10.324,-6.793 l 0,-17.148 c 0,-1.86 -0.828,-3.11 -2.891,-3.11"
         style="fill:#231f20;fill-opacity:1;fill-rule:nonzero;stroke:none"
         id="path24"
         inkscape:connector-curvature="0" /><path
         d="m 476.426,348.648 c -18.574,0 -22.09,-16.128 -22.09,-34.289 0,-17.75 3.723,-32.621 22.297,-32.621 18.582,0 22.09,16.102 22.09,34.293 0,17.731 -3.703,32.617 -22.297,32.617 z m 0,-87.777 c -35.711,0 -54.5,21.289 -54.5,53.91 0,31.59 17.754,54.699 54.707,54.699 35.722,0 54.5,-21.25 54.5,-53.859 0,-31.601 -17.754,-54.75 -54.707,-54.75"
         style="fill:#231f20;fill-opacity:1;fill-rule:nonzero;stroke:none"
         id="path26"
         inkscape:connector-curvature="0" /><path
         d="m 614.961,347.391 c -3.301,0 -6.602,-0.391 -9.481,-1.653 -4.562,-2.078 -7.238,-3.929 -7.238,-11.578 l 0,-40.219 c 0,-5.613 2.676,-7.632 7.238,-9.511 2.879,-1.239 6.18,-1.66 9.481,-1.66 9.285,0 25.809,3.312 25.809,33.261 0,19.18 -7.008,31.36 -25.809,31.36 z m 8.672,-86.52 c -14.668,0 -21.465,5.598 -23.535,5.598 -1.243,0 -1.856,-1.028 -1.856,-2.68 l 0,-39.418 c 0,-3.312 -2.082,-3.73 -3.722,-3.73 l -23.536,0 c -1.636,0 -3.711,0.418 -3.711,3.73 l 0,139.539 c 0,3.309 2.075,3.731 3.711,3.731 l 22.922,0 c 2.473,0 2.891,-1.25 2.891,-2.711 0,-0.809 0.195,-1.43 2.266,-1.43 4.542,0 10.734,5.98 26.433,5.98 30.344,0 47.688,-20.449 47.688,-53.058 0,-36.133 -19.817,-55.551 -49.551,-55.551"
         style="fill:#231f20;fill-opacity:1;fill-rule:nonzero;stroke:none"
         id="path28"
         inkscape:connector-curvature="0" /><path
         d="m 771.66,380.41 c -8.066,0 -12.805,3.512 -12.805,12.211 0,8.469 4.954,11.949 13.215,11.949 8.059,0 12.801,-3.48 12.801,-12.148 0,-8.5 -4.949,-12.012 -13.211,-12.012 z m -5.769,-66.68 c 0,1.469 -0.422,2.09 -1.672,2.09 -1.446,0 -1.446,-0.199 -3.301,-0.82 l -11.77,-4.352 c -6.597,-2.488 -14.441,-5.359 -14.441,-15.699 0,-9.269 4.746,-13.211 15.488,-13.211 3.914,0 9.493,1.453 11.551,3.114 2.063,1.628 4.145,3.476 4.145,8.867 l 0,20.011 z m -30.981,66.68 c -8.055,0 -12.801,3.512 -12.801,12.211 0,8.469 4.961,11.949 13.211,11.949 8.047,0 12.793,-3.48 12.793,-12.148 0,-8.5 -4.961,-12.012 -13.203,-12.012 z m 57.387,-117.66 -22.082,0 c -2.481,0 -2.891,1.23 -2.891,2.691 0,0.821 0,1.45 -2.07,1.45 -4.524,0 -11.973,-5.801 -27.656,-5.801 -28.078,0 -34.485,16.519 -34.485,30.781 0,19.598 10.325,28.07 32.617,34.879 l 23.34,7.012 c 3.508,1.058 6.821,1.648 6.821,5.797 l 0,0.832 c 0,5.789 -4.563,8.449 -19.211,8.449 -17.547,0 -28.086,-6.391 -30.352,-7.641 -1.238,-0.629 -1.855,-1.051 -3.301,-1.051 -1.867,0 -2.683,1.473 -2.683,3.332 l 0,13.411 c 0,2.461 0.203,4.129 2.261,5.39 8.059,5.16 26.641,7.199 39.028,7.199 25.808,0 33.863,-8.039 36.347,-10.539 5.575,-5.57 8.043,-12.57 8.043,-26.82 l 0,-65.652 c 0,-3.297 -2.078,-3.719 -3.726,-3.719"
         style="fill:#231f20;fill-opacity:1;fill-rule:nonzero;stroke:none"
         id="path30"
         inkscape:connector-curvature="0" /><path
         d="m 864.973,262.75 -23.547,0 c -1.641,0 -3.711,0.422 -3.711,3.719 l 0,97.441 c 0,3.309 2.07,3.731 3.711,3.731 l 23.547,0 c 1.648,0 3.718,-0.621 3.718,-3.93 l 0,-97.242 c 0,-3.297 -2.07,-3.719 -3.718,-3.719 z m -11.77,118.711 c -11.14,0 -17.351,4.969 -17.351,13.82 0,8.699 6.406,13.649 17.351,13.649 11.133,0 17.344,-4.95 17.344,-13.852 0,-8.648 -6.406,-13.617 -17.344,-13.617"
         style="fill:#231f20;fill-opacity:1;fill-rule:nonzero;stroke:none"
         id="path32"
         inkscape:connector-curvature="0" /><path
         d="m 939.082,261.09 c -20.027,0 -29.531,4.551 -31.582,6.172 -2.07,1.476 -2.273,2.726 -2.273,5.398 l 0,12.61 c 0,1.628 0.418,3.281 2.898,3.281 1.426,0 1.848,-0.422 3.086,-1.031 7.227,-3.93 16.516,-5.969 26.633,-5.969 6.402,0 12.793,1.219 12.793,7.82 0,5.809 -5.559,8.078 -9.282,10.129 l -13.425,7.84 c -12.383,7.238 -20.633,13.43 -20.633,29.121 0,23.519 17.945,33.019 39.637,33.019 12.382,0 24.355,-2.878 28.496,-5.98 2.05,-1.43 2.05,-2.672 2.05,-5.16 l 0,-13 c 0,-1.68 -0.402,-3.301 -2.878,-3.301 -1.457,0 -2.075,0.41 -3.313,1.031 -5.984,3.301 -11.973,5.961 -21.465,5.961 -6.621,0 -13.633,-1.011 -13.633,-7.832 0,-5.148 5.164,-7.437 8.887,-9.48 l 12.996,-7.449 c 11.77,-6.61 21.469,-14.04 21.469,-30.129 0,-18.789 -13.625,-33.051 -40.461,-33.051"
         style="fill:#231f20;fill-opacity:1;fill-rule:nonzero;stroke:none"
         id="path34"
         inkscape:connector-curvature="0" /><path
         d="m 1097.02,267.262 c -5.16,-3.891 -21.27,-6.172 -33.04,-6.172 -48.3,0 -54.51,34.5 -54.51,53.07 0,19.602 7.03,55.32 57.21,55.32 11.13,0 26.42,-2.878 30.56,-5.98 2.05,-1.43 2.05,-2.672 2.05,-5.16 l 0,-14.68 c 0,-1.621 -0.41,-3.269 -2.88,-3.269 -1.45,0 -2.07,0.398 -3.31,1.019 -7.65,4.129 -12.59,5.981 -22.5,5.981 -23.14,0 -28.71,-16.52 -28.71,-33.231 0,-16.711 7.04,-30.969 27.47,-30.969 9.91,0 16.71,2.079 23.94,5.981 1.24,0.617 1.66,1.039 3.11,1.039 2.26,0 2.88,-1.66 2.88,-3.313 l 0,-14.238 c 0,-2.672 -0.21,-3.922 -2.27,-5.398"
         style="fill:#231f20;fill-opacity:1;fill-rule:nonzero;stroke:none"
         id="path36"
         inkscape:connector-curvature="0" /><path
         d="m 1230.18,262.75 -23.55,0 c -1.65,0 -3.7,0.422 -3.7,3.719 l 0,57.59 c 0,8.261 -0.83,13.421 -3.52,16.929 -3.09,3.934 -7.85,5.801 -14.45,5.801 -3.5,0 -7.84,-0.609 -10.94,-2.078 -4.13,-1.84 -6.19,-4.742 -6.19,-9.891 l 0,-68.351 c 0,-3.719 -2.67,-3.719 -3.72,-3.719 l -23.53,0 c -1.03,0 -3.71,0 -3.71,3.719 l 0,138.929 c 0,3.731 2.68,3.731 3.71,3.731 l 23.53,0 c 1.05,0 3.72,0 3.72,-3.731 l 0,-40.269 c 0,-1.629 0.62,-2.641 1.85,-2.641 2.27,0 11.57,6.992 27.47,6.992 11.76,0 22.28,-3.089 28.89,-10.308 6.82,-7.442 7.86,-16.524 7.86,-33.461 l 0,-59.242 c 0,-3.297 -2.08,-3.719 -3.72,-3.719"
         style="fill:#231f20;fill-opacity:1;fill-rule:nonzero;stroke:none"
         id="path38"
         inkscape:connector-curvature="0" /><path
         d="m 1318.95,350.48 c -12.19,0 -19.42,-8.031 -19.42,-20.218 0,-1.25 0.42,-2.051 2.47,-2.051 l 34.71,0 c 2.05,0 2.47,0.391 2.47,2.66 0,15.918 -11.36,19.609 -20.23,19.609 z m 47.48,-41.281 -63.18,0 c -1.84,0 -3.09,-0.828 -3.09,-2.867 0,-17.582 11.97,-24.781 30.13,-24.781 13.64,0 23.55,4.34 27.46,6.39 1.25,0.61 1.65,1.028 3.1,1.028 2.28,0 2.89,-1.649 2.89,-3.289 l 0,-13.02 c 0,-2.672 -0.21,-3.922 -2.26,-5.398 -5.17,-3.891 -19.82,-6.391 -35.1,-6.391 -30.15,0 -58.63,11.59 -58.63,53.289 0,39.43 22.5,55.539 52.02,55.539 44.18,0 50.38,-30.14 50.38,-51.808 l 0,-4.981 c 0,-3.289 -2.07,-3.711 -3.72,-3.711"
         style="fill:#231f20;fill-opacity:1;fill-rule:nonzero;stroke:none"
         id="path40"
         inkscape:connector-curvature="0" /><path
         d="m 1471.51,342.23 c -3.07,0 -4.72,1.641 -15.67,1.641 -16.52,0 -18.59,-8.66 -18.59,-16.289 l 0,-61.113 c 0,-3.297 -2.07,-3.719 -3.71,-3.719 l -23.56,0 c -1.65,0 -3.69,0.422 -3.69,3.719 l 0,97.441 c 0,3.309 2.04,3.731 3.69,3.731 l 22.92,0 c 2.48,0 2.89,-1.25 2.89,-2.711 l 0,-1.641 c 0,-1.008 1.05,-1.848 2.28,-1.848 5.99,0 10.53,7.84 26.01,7.84 9.08,0 10.32,-3.312 10.32,-6.793 l 0,-17.148 c 0,-1.86 -0.83,-3.11 -2.89,-3.11"
         style="fill:#231f20;fill-opacity:1;fill-rule:nonzero;stroke:none"
         id="path42"
         inkscape:connector-curvature="0" /><path
         d="m 1605.29,261.09 c -22.91,0 -34.48,5.59 -37.58,7.648 -2.06,1.25 -2.46,2.684 -2.46,5.141 l 0,16.332 c 0,1.66 0.4,3.309 2.88,3.309 1.86,0 2.9,-0.84 4.33,-1.649 3.53,-2.082 13.01,-7.441 29.33,-7.441 11.14,0 21.68,1.879 21.68,13.601 0,8.09 -4.96,11.391 -11.16,15.078 l -23.33,14.473 c -7.83,4.938 -21.27,13.617 -21.27,36.93 0,30.566 26.65,37.578 49.98,37.578 11.75,0 24.36,-2.27 32.82,-7.418 2.06,-1.25 2.49,-2.672 2.49,-5.152 l 0,-16.731 c 0,-1.66 -0.43,-3.309 -2.9,-3.309 -2.06,0 -3.11,1.04 -4.75,1.852 -9.72,5.188 -15.91,7.656 -28.07,7.656 -9.1,0 -18.6,-2.269 -18.6,-12.386 0,-7.661 5.17,-11.172 11.36,-14.454 l 18.37,-10.109 c 16.11,-8.891 26.43,-17.348 26.43,-40.059 0,-29.742 -22.09,-40.89 -49.55,-40.89"
         style="fill:#231f20;fill-opacity:1;fill-rule:nonzero;stroke:none"
         id="path44"
         inkscape:connector-curvature="0" /><path
         d="m 1739.88,348.648 c -18.57,0 -22.08,-16.128 -22.08,-34.289 0,-17.75 3.72,-32.621 22.29,-32.621 18.6,0 22.1,16.102 22.1,34.293 0,17.731 -3.7,32.617 -22.31,32.617 z m 0,-87.777 c -35.72,0 -54.51,21.289 -54.51,53.91 0,31.59 17.76,54.699 54.72,54.699 35.73,0 54.5,-21.25 54.5,-53.859 0,-31.601 -17.75,-54.75 -54.71,-54.75"
         style="fill:#231f20;fill-opacity:1;fill-rule:nonzero;stroke:none"
         id="path46"
         inkscape:connector-curvature="0" /><path
         d="m 1906.28,262.75 -79.07,0 c -1.64,0 -3.7,0.422 -3.7,3.719 l 0,12.801 c 0,2.691 0.4,4.75 2.27,7.21 l 42.52,56.782 c 0.62,0.82 1.03,1.238 1.03,2.277 0,1.25 -0.81,1.461 -2.67,1.461 l -37.38,0 c -1.65,0 -3.71,0.391 -3.71,3.691 l 0,13.219 c 0,3.309 2.06,3.731 3.71,3.731 l 75.15,0 c 1.65,0 3.7,-0.422 3.7,-3.731 l 0,-10.961 c 0,-3.078 -0.41,-4.719 -2.25,-7.211 L 1862.1,287.32 c -0.62,-0.84 -1.02,-1.238 -1.02,-2.289 0,-1.23 0.81,-1.441 2.68,-1.441 l 42.52,0 c 1.65,0 3.73,-0.399 3.73,-3.699 l 0,-13.422 c 0,-3.297 -2.08,-3.719 -3.73,-3.719"
         style="fill:#231f20;fill-opacity:1;fill-rule:nonzero;stroke:none"
         id="path48"
         inkscape:connector-curvature="0" /><path
         d="m 1972.77,262.75 -23.54,0 c -1.64,0 -3.71,0.422 -3.71,3.719 l 0,97.441 c 0,3.309 2.07,3.731 3.71,3.731 l 23.54,0 c 1.65,0 3.71,-0.621 3.71,-3.93 l 0,-97.242 c 0,-3.297 -2.06,-3.719 -3.71,-3.719 z M 1961,381.461 c -11.17,0 -17.36,4.969 -17.36,13.82 0,8.699 6.42,13.649 17.36,13.649 11.15,0 17.35,-4.95 17.35,-13.852 0,-8.648 -6.42,-13.617 -17.35,-13.617"
         style="fill:#231f20;fill-opacity:1;fill-rule:nonzero;stroke:none"
         id="path50"
         inkscape:connector-curvature="0" /><path
         d="m 2075.79,313.73 c 0,1.469 -0.4,2.09 -1.67,2.09 -1.43,0 -1.43,-0.199 -3.31,-0.82 l -11.75,-4.352 c -6.6,-2.488 -14.44,-5.359 -14.44,-15.699 0,-9.269 4.74,-13.211 15.48,-13.211 3.92,0 9.48,1.453 11.55,3.114 2.08,1.628 4.14,3.476 4.14,8.867 l 0,20.011 z m 26.42,-50.98 -22.08,0 c -2.48,0 -2.89,1.23 -2.89,2.691 0,0.821 0,1.45 -2.06,1.45 -4.54,0 -12,-5.801 -27.68,-5.801 -28.09,0 -34.48,16.519 -34.48,30.781 0,19.598 10.32,28.07 32.62,34.879 l 23.34,7.012 c 3.5,1.058 6.81,1.648 6.81,5.797 l 0,0.832 c 0,5.789 -4.56,8.449 -19.2,8.449 -17.55,0 -28.07,-6.391 -30.34,-7.641 -1.26,-0.629 -1.87,-1.051 -3.31,-1.051 -1.88,0 -2.69,1.473 -2.69,3.332 l 0,13.411 c 0,2.461 0.2,4.129 2.27,5.39 8.05,5.16 26.63,7.199 39.01,7.199 25.81,0 33.87,-8.039 36.35,-10.539 5.57,-5.57 8.07,-12.57 8.07,-26.82 l 0,-65.652 c 0,-3.297 -2.09,-3.719 -3.74,-3.719"
         style="fill:#231f20;fill-opacity:1;fill-rule:nonzero;stroke:none"
         id="path52"
         inkscape:connector-curvature="0" /><path
         d="m 2174.87,262.75 -23.53,0 c -1.65,0 -3.7,0.422 -3.7,3.719 l 0,138.929 c 0,3.313 2.05,3.731 3.7,3.731 l 23.53,0 c 1.65,0 3.73,-0.617 3.73,-3.949 l 0,-138.711 c 0,-3.297 -2.08,-3.719 -3.73,-3.719"
         style="fill:#231f20;fill-opacity:1;fill-rule:nonzero;stroke:none"
         id="path54"
         inkscape:connector-curvature="0" /><path
         d="m 2273.35,347 -15.07,0 c -0.83,0 -1.84,-0.629 -1.84,-2.5 l 0,-78.031 c 0,-3.297 -2.07,-3.719 -3.73,-3.719 l -23.53,0 c -1.66,0 -3.73,0.422 -3.73,3.719 l 0,78.031 c 0,1.871 -1.03,2.5 -1.85,2.5 l -8.88,0 c -1.65,0 -3.71,0.391 -3.71,3.691 l 0,13.219 c 0,3.309 2.06,3.731 3.71,3.731 l 8.88,0 c 0.82,0 1.85,0.597 1.85,2.461 l 0,5.168 c 0,9.699 0.62,13.839 2.07,17.582 5.78,15.238 20.02,17.308 28.7,17.308 10.94,0 20.86,-2.461 20.86,-7.422 l 0,-12.617 c 0,-2.473 -1.24,-3.289 -2.7,-3.289 -2.49,0 -4.13,2.059 -8.67,2.059 -4.73,0 -7.43,-1.442 -8.66,-5.969 -0.42,-1.461 -0.61,-7.242 -0.61,-10.133 l 0,-2.687 c 0,-1.864 1.01,-2.461 1.84,-2.461 l 15.07,0 c 1.66,0 3.73,-0.422 3.73,-3.731 l 0,-13.219 c 0,-3.3 -2.07,-3.691 -3.73,-3.691"
         style="fill:#231f20;fill-opacity:1;fill-rule:nonzero;stroke:none"
         id="path56"
         inkscape:connector-curvature="0" /><path
         d="m 2355.31,348.648 c -18.58,0 -22.08,-16.128 -22.08,-34.289 0,-17.75 3.71,-32.621 22.29,-32.621 18.59,0 22.08,16.102 22.08,34.293 0,17.731 -3.69,32.617 -22.29,32.617 z m 0,-87.777 c -35.72,0 -54.51,21.289 -54.51,53.91 0,31.59 17.75,54.699 54.72,54.699 35.72,0 54.5,-21.25 54.5,-53.859 0,-31.601 -17.77,-54.75 -54.71,-54.75"
         style="fill:#231f20;fill-opacity:1;fill-rule:nonzero;stroke:none"
         id="path58"
         inkscape:connector-curvature="0" /><path
         d="m 2539.45,262.75 -23.52,0 c -1.65,0 -3.72,0.422 -3.72,3.719 l 0,57.59 c 0,8.261 -0.82,13.421 -3.52,16.929 -3.08,3.934 -7.84,5.801 -14.44,5.801 -3.52,0 -7.84,-0.609 -10.96,-2.078 -4.09,-1.84 -6.17,-4.742 -6.17,-9.891 l 0,-68.351 c 0,-3.297 -2.08,-3.719 -3.73,-3.719 l -23.53,0 c -1.65,0 -3.72,0.422 -3.72,3.719 l 0,97.441 c 0,3.309 2.07,3.731 3.72,3.731 l 23.33,0 c 2.47,0 2.88,-1.25 2.88,-2.711 0,-0.809 0.22,-1.43 2.28,-1.43 2.49,0 5.59,1.012 7.44,1.859 6,2.461 14.26,4.121 20.65,4.121 11.73,0 22.29,-3.089 28.89,-10.308 6.83,-7.442 7.86,-16.524 7.86,-33.461 l 0,-59.242 c 0,-3.297 -2.09,-3.719 -3.74,-3.719"
         style="fill:#231f20;fill-opacity:1;fill-rule:nonzero;stroke:none"
         id="path60"
         inkscape:connector-curvature="0" /><path
         d="m 2653.21,336.461 c 0,5.578 -2.68,7.621 -7.22,9.5 -2.88,1.23 -6.2,1.641 -9.51,1.641 -9.28,0 -25.8,-3.313 -25.8,-33.243 0,-19.179 7.03,-31.39 25.8,-31.39 3.31,0 6.63,0.41 9.51,1.679 4.54,2.043 7.22,3.903 7.22,11.563 l 0,40.25 z m 27.24,-73.711 -22.9,0 c -2.48,0 -2.89,1.23 -2.89,2.691 0,0.821 0,1.45 -2.06,1.45 -4.54,0 -10.96,-5.801 -26.63,-5.801 -30.36,0 -47.71,20.25 -47.71,52.859 0,36.11 19.84,55.531 49.55,55.531 14.67,0 21.48,-5.57 23.56,-5.57 1.23,0 1.84,1.02 1.84,2.692 l 0,39.636 c 0,3.313 2.07,3.711 3.71,3.711 l 23.53,0 c 1.66,0 3.74,-0.398 3.74,-3.711 l 0,-139.769 c 0,-3.297 -2.08,-3.719 -3.74,-3.719"
         style="fill:#231f20;fill-opacity:1;fill-rule:nonzero;stroke:none"
         id="path62"
         inkscape:connector-curvature="0" /><path
         d="m 2754.59,261.09 c -20.05,0 -29.55,4.551 -31.6,6.172 -2.05,1.476 -2.28,2.726 -2.28,5.398 l 0,12.61 c 0,1.628 0.43,3.281 2.88,3.281 1.45,0 1.87,-0.422 3.12,-1.031 7.23,-3.93 16.5,-5.969 26.62,-5.969 6.42,0 12.8,1.219 12.8,7.82 0,5.809 -5.57,8.078 -9.27,10.129 l -13.43,7.84 c -12.39,7.238 -20.65,13.43 -20.65,29.121 0,23.519 17.97,33.019 39.64,33.019 12.39,0 24.37,-2.878 28.48,-5.98 2.08,-1.43 2.08,-2.672 2.08,-5.16 l 0,-13 c 0,-1.68 -0.42,-3.301 -2.89,-3.301 -1.46,0 -2.07,0.41 -3.3,1.031 -5.98,3.301 -11.98,5.961 -21.49,5.961 -6.6,0 -13.62,-1.011 -13.62,-7.832 0,-5.148 5.18,-7.437 8.88,-9.48 l 13,-7.449 c 11.77,-6.61 21.49,-14.04 21.49,-30.129 0,-18.789 -13.65,-33.051 -40.46,-33.051"
         style="fill:#231f20;fill-opacity:1;fill-rule:nonzero;stroke:none"
         id="path64"
         inkscape:connector-curvature="0" /><path
         d="m 612.156,86.1016 -15.066,0 c -0.82,0 -1.848,-0.6328 -1.848,-2.4805 l 0,-78.03126 c 0,-3.32031 -2.066,-3.73046 -3.726,-3.73046 l -23.528,0 c -1.66,0 -3.718,0.41015 -3.718,3.73046 l 0,78.03126 c 0,1.8477 -1.028,2.4805 -1.86,2.4805 l -8.875,0 c -1.648,0 -3.711,0.4101 -3.711,3.7187 l 0,13.2107 c 0,3.309 2.063,3.699 3.711,3.699 l 8.875,0 c 0.832,0 1.86,0.622 1.86,2.469 l 0,5.18 c 0,9.711 0.613,13.832 2.058,17.543 5.781,15.277 20.027,17.34 28.699,17.34 10.95,0 20.864,-2.481 20.864,-7.422 l 0,-12.602 c 0,-2.457 -1.25,-3.297 -2.688,-3.297 -2.48,0 -4.133,2.047 -8.672,2.047 -4.758,0 -7.441,-1.418 -8.664,-5.968 -0.429,-1.442 -0.625,-7.231 -0.625,-10.098 l 0,-2.723 c 0,-1.847 1.028,-2.469 1.848,-2.469 l 15.066,0 c 1.66,0 3.735,-0.39 3.735,-3.699 l 0,-13.2107 c 0,-3.3086 -2.075,-3.7187 -3.735,-3.7187"
         style="fill:#231f20;fill-opacity:1;fill-rule:nonzero;stroke:none"
         id="path66"
         inkscape:connector-curvature="0" /><path
         d="m 710.84,119.539 c -8.035,0 -12.793,3.512 -12.793,12.172 0,8.461 4.949,11.98 13.215,11.98 8.047,0 12.801,-3.519 12.801,-12.171 0,-8.469 -4.961,-11.981 -13.223,-11.981 z m -36.738,0 c -8.047,0 -12.793,3.512 -12.793,12.172 0,8.461 4.953,11.98 13.203,11.98 8.047,0 12.801,-3.519 12.801,-12.171 0,-8.469 -4.95,-11.981 -13.211,-11.981 z m 64.406,-117.67962 -23.32,0 c -2.473,0 -2.891,1.23046 -2.891,2.6914 0,0.83985 0,1.42969 -2.063,1.42969 -2.48,0 -5.793,-1 -7.636,-1.85156 -5.989,-2.46875 -14.461,-3.929691 -20.86,-3.929691 -11.777,0 -22.297,2.890621 -28.906,10.132781 -6.797,7.418 -7.629,16.4961 -7.629,33.4375 l 0,59.2615 c 0,3.309 2.055,3.699 3.715,3.699 l 23.523,0 c 1.661,0 3.719,-0.39 3.719,-3.699 l 0,-57.6013 c 0,-8.2695 0.637,-13.6289 3.313,-17.1484 3.086,-3.9102 8.047,-5.5625 14.66,-5.5625 3.512,0 7.84,0.6132 10.933,2.0703 4.122,1.8593 6.196,4.75 6.196,9.9023 l 0,68.3396 c 0,3.309 2.058,3.699 3.718,3.699 l 23.528,0 c 1.66,0 3.719,-0.39 3.719,-3.699 l 0,-97.44116 c 0,-3.32031 -2.059,-3.73046 -3.719,-3.73046"
         style="fill:#231f20;fill-opacity:1;fill-rule:nonzero;stroke:none"
         id="path68"
         inkscape:connector-curvature="0" /><path
         d="m 850.195,81.3516 c -3.093,0 -4.746,1.6289 -15.691,1.6289 -16.508,0 -18.566,-8.6602 -18.566,-16.3008 l 0,-61.08986 c 0,-3.32031 -2.083,-3.73046 -3.731,-3.73046 l -23.535,0 c -1.652,0 -3.699,0.41015 -3.699,3.73046 l 0,97.44116 c 0,3.309 2.047,3.699 3.699,3.699 l 22.922,0 c 2.469,0 2.886,-1.23 2.886,-2.691 l 0,-1.629 c 0,-1.039 1.04,-1.879 2.266,-1.879 5.996,0 10.527,7.848 26.02,7.848 9.082,0 10.32,-3.297 10.32,-6.797 l 0,-17.1328 c 0,-1.8672 -0.82,-3.0976 -2.891,-3.0976"
         style="fill:#231f20;fill-opacity:1;fill-rule:nonzero;stroke:none"
         id="path70"
         inkscape:connector-curvature="0" /><path
         d="m 1022.79,111.281 c -8.27,3.508 -15.49,4.141 -28.696,4.141 l -8.457,0 c -0.832,0 -2.063,-0.442 -2.063,-2.5 l 0,-84.4337 c 0,-1.8399 1.231,-2.457 2.063,-2.457 l 13.008,0 c 18.355,0 44.795,5.1484 44.795,45.207 0,20.0117 -6.82,34.0707 -20.65,40.0427 z m 23.96,-99.9099 c -10.96,-5.98047 -24.99,-9.51172 -45.02,-9.51172 l -47.484,0 c -1.648,0 -3.719,0.41015 -3.719,3.73046 l 0,130.25016 c 0,3.301 2.071,3.738 3.719,3.738 l 50.164,0 c 16.31,0 30.14,-2.269 39.86,-7.027 21.03,-10.121 33.44,-33.2424 33.44,-61.1213 0,-27.4492 -11.36,-49.3477 -30.96,-60.0586"
         style="fill:#231f20;fill-opacity:1;fill-rule:nonzero;stroke:none"
         id="path72"
         inkscape:connector-curvature="0" /><path
         d="m 1157.8,89.6016 c -12.18,0 -19.4,-8.043 -19.4,-20.2227 0,-1.2578 0.41,-2.0781 2.48,-2.0781 l 34.69,0 c 2.06,0 2.48,0.418 2.48,2.6992 0,15.8711 -11.37,19.6016 -20.25,19.6016 z m 47.49,-41.3008 -63.18,0 c -1.85,0 -3.1,-0.8125 -3.1,-2.8711 0,-17.5586 11.98,-24.8008 30.15,-24.8008 13.63,0 23.54,4.3594 27.46,6.4024 1.23,0.6171 1.66,1.0468 3.1,1.0468 2.26,0 2.88,-1.6484 2.88,-3.289 l 0,-13.0391 c 0,-2.66797 -0.2,-3.91797 -2.27,-5.35937 C 1195.17,2.46094 1180.52,0 1165.24,0 c -30.14,0 -58.63,11.5586 -58.63,53.2695 0,39.4414 22.5,55.5315 52.01,55.5315 44.19,0 50.38,-30.1526 50.38,-51.8127 l 0,-4.957 c 0,-3.3125 -2.06,-3.7305 -3.71,-3.7305"
         style="fill:#231f20;fill-opacity:1;fill-rule:nonzero;stroke:none"
         id="path74"
         inkscape:connector-curvature="0" /><path
         d="m 1337.42,1.85938 -23.33,0 c -2.48,0 -2.88,1.23046 -2.88,2.6914 0,0.83985 0,1.42969 -2.07,1.42969 -2.48,0 -5.78,-1 -7.64,-1.85156 -5.99,-2.46875 -14.46,-3.929691 -20.85,-3.929691 -11.77,0 -22.29,2.890621 -28.91,10.132781 -6.8,7.418 -7.64,16.4961 -7.64,33.4375 l 0,59.2615 c 0,3.309 2.07,3.699 3.72,3.699 l 23.53,0 c 1.66,0 3.72,-0.39 3.72,-3.699 l 0,-57.6013 c 0,-8.2695 0.63,-13.6289 3.31,-17.1484 3.08,-3.9102 8.06,-5.5625 14.66,-5.5625 3.51,0 7.84,0.6132 10.94,2.0703 4.13,1.8593 6.19,4.75 6.19,9.9023 l 0,68.3396 c 0,3.309 2.06,3.699 3.71,3.699 l 23.54,0 c 1.66,0 3.71,-0.39 3.71,-3.699 l 0,-97.44116 c 0,-3.32031 -2.05,-3.73046 -3.71,-3.73046"
         style="fill:#231f20;fill-opacity:1;fill-rule:nonzero;stroke:none"
         id="path76"
         inkscape:connector-curvature="0" /><path
         d="m 1424.33,0.199219 c -5.37,0 -19.6,0.421875 -27.87,7.031251 -5.98,4.75003 -9.49,12.39843 -9.49,27.66013 l 0,48.7305 c 0,1.8477 -1.04,2.4805 -1.87,2.4805 l -8.87,0 c -1.66,0 -3.72,0.4101 -3.72,3.7187 l 0,13.2107 c 0,3.309 2.06,3.699 3.72,3.699 l 8.87,0 c 0.83,0 1.87,0.622 1.87,2.469 l 0,19.832 c 0,3.309 2.06,3.719 3.7,3.719 l 23.54,0 c 1.65,0 3.72,-0.41 3.72,-3.719 l 0,-19.832 c 0,-1.847 1.03,-2.469 1.86,-2.469 l 25.6,0 c 1.65,0 3.7,-0.39 3.7,-3.699 l 0,-13.2107 c 0,-3.3086 -2.05,-3.7187 -3.7,-3.7187 l -25.6,0 c -0.83,0 -1.86,-0.6328 -1.86,-2.4805 l 0,-41.6914 c 0,-6.3984 0.2,-8.8984 1.03,-11.7891 1.05,-3.4922 4.14,-7.4218 12.18,-7.4218 10.12,0 12.4,3.9296 15.08,3.9296 1.64,0 2.87,-0.8281 2.87,-3.3164 l 0,-15.70309 c 0,-5.54688 -15.06,-7.429691 -24.76,-7.429691"
         style="fill:#231f20;fill-opacity:1;fill-rule:nonzero;stroke:none"
         id="path78"
         inkscape:connector-curvature="0" /><path
         d="m 1517.43,0.199219 c -20,0 -29.54,4.570311 -31.57,6.191411 -2.08,1.4414 -2.29,2.6914 -2.29,5.35937 l 0,12.6211 c 0,1.6602 0.42,3.2773 2.89,3.2773 1.43,0 1.86,-0.4179 3.11,-1 7.22,-3.9296 16.49,-6.0195 26.63,-6.0195 6.41,0 12.8,1.25 12.8,7.8594 0,5.7812 -5.57,8.043 -9.28,10.1328 l -13.43,7.8281 c -12.38,7.2305 -20.65,13.4297 -20.65,29.1289 0,23.5235 17.96,33.0039 39.63,33.0039 12.4,0 24.37,-2.863 28.52,-5.973 2.04,-1.449 2.04,-2.6871 2.04,-5.1676 l 0,-12.9922 c 0,-1.6679 -0.4,-3.289 -2.88,-3.289 -1.46,0 -2.08,0.3984 -3.31,1 -5.98,3.3086 -11.97,5.9804 -21.47,5.9804 -6.61,0 -13.61,-1.0117 -13.61,-7.8203 0,-5.1914 5.16,-7.4414 8.87,-9.5 l 12.98,-7.4492 c 11.78,-6.582 21.5,-14.043 21.5,-30.1406 0,-18.7696 -13.63,-33.031281 -40.48,-33.031281"
         style="fill:#231f20;fill-opacity:1;fill-rule:nonzero;stroke:none"
         id="path80"
         inkscape:connector-curvature="0" /><path
         d="m 1675.37,6.39063 c -5.16,-3.92969 -21.25,-6.191411 -33.03,-6.191411 -48.3,0 -54.51,34.492181 -54.51,53.070281 0,19.6094 7.02,55.3125 57.19,55.3125 11.15,0 26.44,-2.863 30.56,-5.973 2.07,-1.449 2.07,-2.6871 2.07,-5.1676 l 0,-14.6601 c 0,-1.6211 -0.42,-3.3008 -2.88,-3.3008 -1.45,0 -2.08,0.4179 -3.31,1.039 -7.66,4.1094 -12.59,5.9922 -22.51,5.9922 -23.13,0 -28.69,-16.5117 -28.69,-33.2422 0,-16.7382 7.03,-30.9804 27.45,-30.9804 9.92,0 16.71,2.082 23.95,5.9922 1.23,0.6289 1.66,1.0468 3.11,1.0468 2.24,0 2.88,-1.6797 2.88,-3.2968 l 0,-14.2813 c 0,-2.66797 -0.22,-3.91797 -2.28,-5.35937"
         style="fill:#231f20;fill-opacity:1;fill-rule:nonzero;stroke:none"
         id="path82"
         inkscape:connector-curvature="0" /><path
         d="m 1808.53,1.85938 -23.54,0 c -1.66,0 -3.7,0.41015 -3.7,3.73046 l 0,57.58206 c 0,8.2578 -0.84,13.4179 -3.53,16.9375 -3.09,3.9219 -7.85,5.7617 -14.44,5.7617 -3.51,0 -7.85,-0.6094 -10.95,-2.0508 -4.12,-1.8594 -6.18,-4.7617 -6.18,-9.9219 l 0,-68.30856 c 0,-3.73046 -2.69,-3.73046 -3.73,-3.73046 l -23.53,0 c -1.03,0 -3.71,0 -3.71,3.73046 l 0,138.94116 c 0,3.688 2.68,3.688 3.71,3.688 l 23.53,0 c 1.04,0 3.73,0 3.73,-3.688 l 0,-40.281 c 0,-1.641 0.61,-2.668 1.84,-2.668 2.28,0 11.56,7 27.46,7 11.77,0 22.29,-3.082 28.9,-10.3125 6.82,-7.4375 7.87,-16.5312 7.87,-33.4375 l 0,-59.24216 c 0,-3.32031 -2.08,-3.73046 -3.73,-3.73046"
         style="fill:#231f20;fill-opacity:1;fill-rule:nonzero;stroke:none"
         id="path84"
         inkscape:connector-curvature="0" /><path
         d="m 1881.2,1.85938 -23.55,0 c -1.63,0 -3.7,0.41015 -3.7,3.73046 l 0,138.94116 c 0,3.289 2.07,3.688 3.7,3.688 l 23.55,0 c 1.65,0 3.71,-0.598 3.71,-3.91 l 0,-138.71916 c 0,-3.32031 -2.06,-3.73046 -3.71,-3.73046"
         style="fill:#231f20;fill-opacity:1;fill-rule:nonzero;stroke:none"
         id="path86"
         inkscape:connector-curvature="0" /><path
         d="m 1984.22,52.8594 c 0,1.4219 -0.42,2.0508 -1.65,2.0508 -1.46,0 -1.46,-0.1993 -3.31,-0.8399 l -11.78,-4.3086 c -6.58,-2.4804 -14.44,-5.3633 -14.44,-15.6914 0,-9.2812 4.73,-13.2305 15.5,-13.2305 3.9,0 9.49,1.4493 11.55,3.1016 2.05,1.6602 4.13,3.5195 4.13,8.8984 l 0,20.0196 z m 26.41,-51.00002 -22.09,0 c -2.47,0 -2.88,1.23046 -2.88,2.6914 0,0.83985 0,1.42969 -2.08,1.42969 -4.52,0 -11.97,-5.781251 -27.64,-5.781251 -28.08,0 -34.49,16.519581 -34.49,30.761681 0,19.6407 10.32,28.0782 32.62,34.9102 l 23.33,7.0078 c 3.52,1.0195 6.82,1.6602 6.82,5.7695 l 0,0.8321 c 0,5.7812 -4.54,8.4492 -19.21,8.4492 -17.54,0 -28.09,-6.3711 -30.34,-7.6094 -1.25,-0.6289 -1.85,-1.039 -3.31,-1.039 -1.85,0 -2.69,1.457 -2.69,3.3007 l 0,13.4375 c 0,2.461 0.21,4.1215 2.28,5.3515 8.04,5.16 26.64,7.211 39.02,7.211 25.81,0 33.86,-8.051 36.33,-10.5234 5.58,-5.5586 8.07,-12.5898 8.07,-26.8203 l 0,-65.64846 c 0,-3.32031 -2.08,-3.73046 -3.74,-3.73046"
         style="fill:#231f20;fill-opacity:1;fill-rule:nonzero;stroke:none"
         id="path88"
         inkscape:connector-curvature="0" /><path
         d="m 2149.38,1.85938 -23.55,0 c -1.65,0 -3.69,0.41015 -3.69,3.73046 l 0,57.58206 c 0,8.2578 -0.85,13.4179 -3.52,16.9375 -3.09,3.9219 -7.85,5.7617 -14.45,5.7617 -3.52,0 -7.85,-0.6094 -10.95,-2.0508 -4.12,-1.8594 -6.19,-4.7617 -6.19,-9.9219 l 0,-68.30856 c 0,-3.32031 -2.07,-3.73046 -3.71,-3.73046 l -23.54,0 c -1.65,0 -3.71,0.41015 -3.71,3.73046 l 0,97.44116 c 0,3.309 2.06,3.699 3.71,3.699 l 23.33,0 c 2.47,0 2.88,-1.23 2.88,-2.691 0,-0.82 0.22,-1.43 2.28,-1.43 2.46,0 5.58,1.032 7.42,1.86 6,2.461 14.27,4.113 20.65,4.113 11.78,0 22.3,-3.082 28.9,-10.3125 6.82,-7.4375 7.87,-16.5312 7.87,-33.4375 l 0,-59.24216 c 0,-3.32031 -2.08,-3.73046 -3.73,-3.73046"
         style="fill:#231f20;fill-opacity:1;fill-rule:nonzero;stroke:none"
         id="path90"
         inkscape:connector-curvature="0" /><path
         d="m 2263.13,75.5781 c 0,5.5821 -2.69,7.6211 -7.23,9.4727 -2.87,1.2383 -6.18,1.6601 -9.49,1.6601 -9.3,0 -25.81,-3.3125 -25.81,-33.2304 0,-19.211 7.03,-31.3985 25.81,-31.3985 3.31,0 6.62,0.418 9.49,1.6485 4.54,2.0898 7.23,3.9179 7.23,11.5898 l 0,40.2578 z m 27.24,-73.71872 -22.9,0 c -2.49,0 -2.89,1.23046 -2.89,2.6914 0,0.83985 0,1.42969 -2.07,1.42969 -4.53,0 -10.94,-5.781251 -26.63,-5.781251 -30.34,0 -47.71,20.230481 -47.71,52.859381 0,36.1211 19.83,55.5234 49.57,55.5234 14.65,0 21.46,-5.551 23.55,-5.551 1.22,0 1.84,1.008 1.84,2.688 l 0,39.633 c 0,3.277 2.07,3.699 3.72,3.699 l 23.52,0 c 1.66,0 3.72,-0.422 3.72,-3.699 l 0,-139.76216 c 0,-3.32031 -2.06,-3.73046 -3.72,-3.73046"
         style="fill:#231f20;fill-opacity:1;fill-rule:nonzero;stroke:none"
         id="path92"
         inkscape:connector-curvature="0" /><g
         id="g94"><g
           id="g96"
           clip-path="url(#clipPath98)"><path
             d="M 1042.82,538.18 196.301,803.227 0,544.945 1042.82,538.18"
             style="fill:url(#linearGradient102);fill-opacity:1;fill-rule:nonzero;stroke:none"
             id="path110"
             inkscape:connector-curvature="0" /></g></g><g
         id="g112"><g
           id="g114"
           clip-path="url(#clipPath116)"><path
             d="M 1068.83,562.348 534.98,1270.45 226.379,1176.68 1068.83,562.348"
             style="fill:url(#linearGradient120);fill-opacity:1;fill-rule:nonzero;stroke:none"
             id="path130"
             inkscape:connector-curvature="0" /></g></g><path
         d="M 1081.3,571.605 790.43,1409.31 467.949,1414.79 1081.3,571.605"
         style="fill:#231f20;fill-opacity:1;fill-rule:nonzero;stroke:none"
         id="path132"
         inkscape:connector-curvature="0" /><g
         id="g134"><g
           id="g136"
           clip-path="url(#clipPath138)"><path
             d="M 1055.12,550.609 330.52,1061.91 65.2813,878.363 1055.12,550.609"
             style="fill:url(#linearGradient142);fill-opacity:1;fill-rule:nonzero;stroke:none"
             id="path152"
             inkscape:connector-curvature="0" /></g></g></g></g></svg>